<svg xmlns="http://www.w3.org/2000/svg" viewBox="0 0 992 344" font-family="-apple-system,BlinkMacSystemFont,Segoe UI,Roboto,sans-serif">
  <style>
    .title { fill: #212121; font-size: 20px; font-weight: 600; }
    .now-label { fill: #6f6f6f; font-size: 13px; }
    .axis-line { stroke: #888; stroke-width: 1; }
    .axis-label { fill: #6f6f6f; font-size: 11px; }
    .boundary-line { stroke: #6f6f6f; stroke-width: 1; stroke-dasharray: 3 3; opacity: 0.6; }
    .evening-bracket { stroke: #6f6f6f; stroke-width: 1; opacity: 0.6; }
    .boundary-label { fill: #6f6f6f; font-size: 11px; }
    .now-line { stroke: #212121; stroke-width: 1.5; }
    .now-dot { stroke: #ffffff; stroke-width: 1.5; }
    .sun-line { stroke: #f5a623; stroke-width: 1.5; opacity: 0.85; }
    .sun-dot { fill: #f5a623; }
    .sun-label { fill: #6f6f6f; font-size: 12px; }
    .footnote { fill: #6f6f6f; font-size: 12px; }
  </style>
  <rect x="0" y="0" width="992" height="344" rx="12" fill="#ffffff" stroke="#e0e0e0" />
  <text x="16" y="28" class="title">Adaptive Lighting</text>
  <text x="16" y="58" class="now-label">Now 17:04 · 255 bri · 4607K · Day</text>
  <text x="16" y="80" class="sun-label">Sunrise 06:24 · Sunset 19:45</text>
  <g transform="translate(16, 84)">
    <rect x="32.11" y="143.80" width="3.77" height="50.20" fill="#ffa757" /><rect x="35.29" y="143.80" width="3.77" height="50.20" fill="#ffa757" /><rect x="38.46" y="143.80" width="3.77" height="50.20" fill="#ffa757" /><rect x="41.63" y="143.80" width="3.77" height="50.20" fill="#ffa757" /><rect x="44.81" y="143.80" width="3.77" height="50.20" fill="#ffa757" /><rect x="47.98" y="143.80" width="3.77" height="50.20" fill="#ffa757" /><rect x="51.15" y="143.80" width="3.77" height="50.20" fill="#ffa757" /><rect x="54.33" y="143.80" width="3.77" height="50.20" fill="#ffa757" /><rect x="57.50" y="143.80" width="3.77" height="50.20" fill="#ffa757" /><rect x="60.68" y="143.80" width="3.77" height="50.20" fill="#ffa757" /><rect x="63.85" y="143.80" width="3.77" height="50.20" fill="#ffa757" /><rect x="67.02" y="143.80" width="3.77" height="50.20" fill="#ffa757" /><rect x="70.20" y="143.80" width="3.77" height="50.20" fill="#ffa757" /><rect x="73.37" y="143.80" width="3.77" height="50.20" fill="#ffa757" /><rect x="76.54" y="143.80" width="3.77" height="50.20" fill="#ffa757" /><rect x="79.72" y="143.80" width="3.77" height="50.20" fill="#ffa757" /><rect x="82.89" y="143.80" width="3.77" height="50.20" fill="#ffa757" /><rect x="86.06" y="143.80" width="3.77" height="50.20" fill="#ffa757" /><rect x="89.24" y="143.80" width="3.77" height="50.20" fill="#ffa757" /><rect x="92.41" y="143.80" width="3.77" height="50.20" fill="#ffa757" /><rect x="95.59" y="143.80" width="3.77" height="50.20" fill="#ffa757" /><rect x="98.76" y="143.80" width="3.77" height="50.20" fill="#ffa757" /><rect x="101.93" y="143.80" width="3.77" height="50.20" fill="#ffa757" /><rect x="105.11" y="143.80" width="3.77" height="50.20" fill="#ffa757" /><rect x="108.28" y="143.80" width="3.77" height="50.20" fill="#ffa757" /><rect x="111.45" y="143.80" width="3.77" height="50.20" fill="#ffa757" /><rect x="114.63" y="143.80" width="3.77" height="50.20" fill="#ffa757" /><rect x="117.80" y="143.80" width="3.77" height="50.20" fill="#ffa757" /><rect x="120.97" y="143.80" width="3.77" height="50.20" fill="#ffa757" /><rect x="124.15" y="143.80" width="3.77" height="50.20" fill="#ffa757" /><rect x="127.32" y="143.80" width="3.77" height="50.20" fill="#ffa757" /><rect x="130.50" y="143.80" width="3.77" height="50.20" fill="#ffa757" /><rect x="133.67" y="143.80" width="3.77" height="50.20" fill="#ffa757" /><rect x="136.84" y="143.80" width="3.77" height="50.20" fill="#ffa757" /><rect x="140.02" y="143.80" width="3.77" height="50.20" fill="#ffa757" /><rect x="143.19" y="143.80" width="3.77" height="50.20" fill="#ffa757" /><rect x="146.36" y="143.80" width="3.77" height="50.20" fill="#ffa757" /><rect x="149.54" y="143.80" width="3.77" height="50.20" fill="#ffa757" /><rect x="152.71" y="143.80" width="3.77" height="50.20" fill="#ffa757" /><rect x="155.88" y="143.80" width="3.77" height="50.20" fill="#ffa757" /><rect x="159.06" y="143.80" width="3.77" height="50.20" fill="#ffa757" /><rect x="162.23" y="143.80" width="3.77" height="50.20" fill="#ffa757" /><rect x="165.40" y="143.80" width="3.77" height="50.20" fill="#ffa757" /><rect x="168.58" y="143.80" width="3.77" height="50.20" fill="#ffa757" /><rect x="171.75" y="143.80" width="3.77" height="50.20" fill="#ffa757" /><rect x="174.93" y="143.80" width="3.77" height="50.20" fill="#ffa757" /><rect x="178.10" y="143.80" width="3.77" height="50.20" fill="#ffa757" /><rect x="181.27" y="143.80" width="3.77" height="50.20" fill="#ffa757" /><rect x="184.45" y="143.80" width="3.77" height="50.20" fill="#ffa757" /><rect x="187.62" y="143.80" width="3.77" height="50.20" fill="#ffa757" /><rect x="190.79" y="143.80" width="3.77" height="50.20" fill="#ffa757" /><rect x="193.97" y="143.80" width="3.77" height="50.20" fill="#ffa757" /><rect x="197.14" y="143.80" width="3.77" height="50.20" fill="#ffa757" /><rect x="200.31" y="143.80" width="3.77" height="50.20" fill="#ffa757" /><rect x="203.49" y="143.80" width="3.77" height="50.20" fill="#ffa757" /><rect x="206.66" y="143.80" width="3.77" height="50.20" fill="#ffa757" /><rect x="209.84" y="143.80" width="3.77" height="50.20" fill="#ffa757" /><rect x="213.01" y="143.80" width="3.77" height="50.20" fill="#ffa757" /><rect x="216.18" y="143.80" width="3.77" height="50.20" fill="#ffa757" /><rect x="219.36" y="143.80" width="3.77" height="50.20" fill="#ffa757" /><rect x="222.53" y="143.80" width="3.77" height="50.20" fill="#ffa757" /><rect x="225.70" y="143.80" width="3.77" height="50.20" fill="#ffa757" /><rect x="228.88" y="143.80" width="3.77" height="50.20" fill="#ffa757" /><rect x="232.05" y="143.80" width="3.77" height="50.20" fill="#ffa757" /><rect x="235.22" y="143.80" width="3.77" height="50.20" fill="#ffa757" /><rect x="238.40" y="143.80" width="3.77" height="50.20" fill="#ffa757" /><rect x="241.57" y="143.80" width="3.77" height="50.20" fill="#ffa757" /><rect x="244.75" y="143.80" width="3.77" height="50.20" fill="#ffa757" /><rect x="247.92" y="143.80" width="3.77" height="50.20" fill="#ffa757" /><rect x="251.09" y="143.80" width="3.77" height="50.20" fill="#ffa757" /><rect x="254.27" y="143.80" width="3.77" height="50.20" fill="#ffa757" /><rect x="257.44" y="143.80" width="3.77" height="50.20" fill="#ffa757" /><rect x="260.61" y="34.00" width="3.77" height="160.00" fill="#fffaff" /><rect x="263.79" y="34.00" width="3.77" height="160.00" fill="#fffaff" /><rect x="266.96" y="34.00" width="3.77" height="160.00" fill="#fffaff" /><rect x="270.13" y="34.00" width="3.77" height="160.00" fill="#fffaff" /><rect x="273.31" y="34.00" width="3.77" height="160.00" fill="#fffaff" /><rect x="276.48" y="34.00" width="3.77" height="160.00" fill="#fffaff" /><rect x="279.65" y="34.00" width="3.77" height="160.00" fill="#fffaff" /><rect x="282.83" y="34.00" width="3.77" height="160.00" fill="#fffaff" /><rect x="286.00" y="34.00" width="3.77" height="160.00" fill="#fffaff" /><rect x="289.18" y="34.00" width="3.77" height="160.00" fill="#fffaff" /><rect x="292.35" y="34.00" width="3.77" height="160.00" fill="#fffaff" /><rect x="295.52" y="34.00" width="3.77" height="160.00" fill="#fffaff" /><rect x="298.70" y="34.00" width="3.77" height="160.00" fill="#fffaff" /><rect x="301.87" y="34.00" width="3.77" height="160.00" fill="#fffaff" /><rect x="305.04" y="34.00" width="3.77" height="160.00" fill="#fffaff" /><rect x="308.22" y="34.00" width="3.77" height="160.00" fill="#fffaff" /><rect x="311.39" y="34.00" width="3.77" height="160.00" fill="#fffaff" /><rect x="314.56" y="34.00" width="3.77" height="160.00" fill="#fffaff" /><rect x="317.74" y="34.00" width="3.77" height="160.00" fill="#fffaff" /><rect x="320.91" y="34.00" width="3.77" height="160.00" fill="#fffaff" /><rect x="324.09" y="34.00" width="3.77" height="160.00" fill="#fffaff" /><rect x="327.26" y="34.00" width="3.77" height="160.00" fill="#fffaff" /><rect x="330.43" y="34.00" width="3.77" height="160.00" fill="#fffaff" /><rect x="333.61" y="34.00" width="3.77" height="160.00" fill="#fffaff" /><rect x="336.78" y="34.00" width="3.77" height="160.00" fill="#fffaff" /><rect x="339.95" y="34.00" width="3.77" height="160.00" fill="#fffaff" /><rect x="343.13" y="34.00" width="3.77" height="160.00" fill="#fffbff" /><rect x="346.30" y="34.00" width="3.77" height="160.00" fill="#fffbff" /><rect x="349.47" y="34.00" width="3.77" height="160.00" fill="#fffffc" /><rect x="352.65" y="34.00" width="3.77" height="160.00" fill="#fffffc" /><rect x="355.82" y="34.00" width="3.77" height="160.00" fill="#fffffb" /><rect x="359.00" y="34.00" width="3.77" height="160.00" fill="#fffffb" /><rect x="362.17" y="34.00" width="3.77" height="160.00" fill="#fffefa" /><rect x="365.34" y="34.00" width="3.77" height="160.00" fill="#fffefa" /><rect x="368.52" y="34.00" width="3.77" height="160.00" fill="#fffef9" /><rect x="371.69" y="34.00" width="3.77" height="160.00" fill="#fffdf9" /><rect x="374.86" y="34.00" width="3.77" height="160.00" fill="#fffdf9" /><rect x="378.04" y="34.00" width="3.77" height="160.00" fill="#fffdf8" /><rect x="381.21" y="34.00" width="3.77" height="160.00" fill="#fffdf8" /><rect x="384.38" y="34.00" width="3.77" height="160.00" fill="#fffcf7" /><rect x="387.56" y="34.00" width="3.77" height="160.00" fill="#fffcf7" /><rect x="390.73" y="34.00" width="3.77" height="160.00" fill="#fffcf6" /><rect x="393.90" y="34.00" width="3.77" height="160.00" fill="#fffbf6" /><rect x="397.08" y="34.00" width="3.77" height="160.00" fill="#fffbf5" /><rect x="400.25" y="34.00" width="3.77" height="160.00" fill="#fffbf5" /><rect x="403.43" y="34.00" width="3.77" height="160.00" fill="#fffbf4" /><rect x="406.60" y="34.00" width="3.77" height="160.00" fill="#fffaf4" /><rect x="409.77" y="34.00" width="3.77" height="160.00" fill="#fffaf3" /><rect x="412.95" y="34.00" width="3.77" height="160.00" fill="#fffaf3" /><rect x="416.12" y="34.00" width="3.77" height="160.00" fill="#fff9f2" /><rect x="419.29" y="34.00" width="3.77" height="160.00" fill="#fff9f2" /><rect x="422.47" y="34.00" width="3.77" height="160.00" fill="#fff9f1" /><rect x="425.64" y="34.00" width="3.77" height="160.00" fill="#fff8f1" /><rect x="428.81" y="34.00" width="3.77" height="160.00" fill="#fff8f0" /><rect x="431.99" y="34.00" width="3.77" height="160.00" fill="#fff8f0" /><rect x="435.16" y="34.00" width="3.77" height="160.00" fill="#fff7ef" /><rect x="438.34" y="34.00" width="3.77" height="160.00" fill="#fff7ef" /><rect x="441.51" y="34.00" width="3.77" height="160.00" fill="#fff7ee" /><rect x="444.68" y="34.00" width="3.77" height="160.00" fill="#fff7ee" /><rect x="447.86" y="34.00" width="3.77" height="160.00" fill="#fff6ed" /><rect x="451.03" y="34.00" width="3.77" height="160.00" fill="#fff6ec" /><rect x="454.20" y="34.00" width="3.77" height="160.00" fill="#fff6ec" /><rect x="457.38" y="34.00" width="3.77" height="160.00" fill="#fff5eb" /><rect x="460.55" y="34.00" width="3.77" height="160.00" fill="#fff5eb" /><rect x="463.72" y="34.00" width="3.77" height="160.00" fill="#fff5ea" /><rect x="466.90" y="34.00" width="3.77" height="160.00" fill="#fff4ea" /><rect x="470.07" y="34.00" width="3.77" height="160.00" fill="#fff4e9" /><rect x="473.25" y="34.00" width="3.77" height="160.00" fill="#fff4e9" /><rect x="476.42" y="34.00" width="3.77" height="160.00" fill="#fff3e8" /><rect x="479.59" y="34.00" width="3.77" height="160.00" fill="#fff3e8" /><rect x="482.77" y="34.00" width="3.77" height="160.00" fill="#fff3e7" /><rect x="485.94" y="34.00" width="3.77" height="160.00" fill="#fff2e7" /><rect x="489.11" y="34.00" width="3.77" height="160.00" fill="#fff2e6" /><rect x="492.29" y="34.00" width="3.77" height="160.00" fill="#fff2e5" /><rect x="495.46" y="34.00" width="3.77" height="160.00" fill="#fff1e5" /><rect x="498.63" y="34.00" width="3.77" height="160.00" fill="#fff1e4" /><rect x="501.81" y="34.00" width="3.77" height="160.00" fill="#fff1e4" /><rect x="504.98" y="34.00" width="3.77" height="160.00" fill="#fff0e3" /><rect x="508.15" y="34.00" width="3.77" height="160.00" fill="#fff0e3" /><rect x="511.33" y="34.00" width="3.77" height="160.00" fill="#fff0e2" /><rect x="514.50" y="34.00" width="3.77" height="160.00" fill="#ffefe2" /><rect x="517.68" y="34.00" width="3.77" height="160.00" fill="#ffefe1" /><rect x="520.85" y="34.00" width="3.77" height="160.00" fill="#ffefe0" /><rect x="524.02" y="34.00" width="3.77" height="160.00" fill="#ffeee0" /><rect x="527.20" y="34.00" width="3.77" height="160.00" fill="#ffeedf" /><rect x="530.37" y="34.00" width="3.77" height="160.00" fill="#ffeedf" /><rect x="533.54" y="34.00" width="3.77" height="160.00" fill="#ffedde" /><rect x="536.72" y="34.00" width="3.77" height="160.00" fill="#ffeddd" /><rect x="539.89" y="34.00" width="3.77" height="160.00" fill="#ffeddd" /><rect x="543.06" y="34.00" width="3.77" height="160.00" fill="#ffecdc" /><rect x="546.24" y="34.00" width="3.77" height="160.00" fill="#ffecdc" /><rect x="549.41" y="34.00" width="3.77" height="160.00" fill="#ffecdb" /><rect x="552.59" y="34.00" width="3.77" height="160.00" fill="#ffebdb" /><rect x="555.76" y="34.00" width="3.77" height="160.00" fill="#ffebda" /><rect x="558.93" y="34.00" width="3.77" height="160.00" fill="#ffebd9" /><rect x="562.11" y="34.00" width="3.77" height="160.00" fill="#ffead9" /><rect x="565.28" y="34.00" width="3.77" height="160.00" fill="#ffead8" /><rect x="568.45" y="34.00" width="3.77" height="160.00" fill="#ffead7" /><rect x="571.63" y="34.00" width="3.77" height="160.00" fill="#ffe9d7" /><rect x="574.80" y="34.00" width="3.77" height="160.00" fill="#ffe9d6" /><rect x="577.97" y="34.00" width="3.77" height="160.00" fill="#ffe8d6" /><rect x="581.15" y="34.00" width="3.77" height="160.00" fill="#ffe8d5" /><rect x="584.32" y="34.00" width="3.77" height="160.00" fill="#ffe8d4" /><rect x="587.50" y="34.00" width="3.77" height="160.00" fill="#ffe7d4" /><rect x="590.67" y="34.00" width="3.77" height="160.00" fill="#ffe7d3" /><rect x="593.84" y="34.00" width="3.77" height="160.00" fill="#ffe7d3" /><rect x="597.02" y="34.00" width="3.77" height="160.00" fill="#ffe6d2" /><rect x="600.19" y="34.00" width="3.77" height="160.00" fill="#ffe6d1" /><rect x="603.36" y="34.00" width="3.77" height="160.00" fill="#ffe6d1" /><rect x="606.54" y="34.00" width="3.77" height="160.00" fill="#ffe5d0" /><rect x="609.71" y="34.00" width="3.77" height="160.00" fill="#ffe5cf" /><rect x="612.88" y="34.00" width="3.77" height="160.00" fill="#ffe4cf" /><rect x="616.06" y="34.00" width="3.77" height="160.00" fill="#ffe4ce" /><rect x="619.23" y="34.00" width="3.77" height="160.00" fill="#ffe4cd" /><rect x="622.40" y="34.00" width="3.77" height="160.00" fill="#ffe3cd" /><rect x="625.58" y="34.00" width="3.77" height="160.00" fill="#ffe3cc" /><rect x="628.75" y="34.00" width="3.77" height="160.00" fill="#ffe3cb" /><rect x="631.93" y="34.00" width="3.77" height="160.00" fill="#ffe2cb" /><rect x="635.10" y="34.00" width="3.77" height="160.00" fill="#ffe2ca" /><rect x="638.27" y="34.00" width="3.77" height="160.00" fill="#ffe1c9" /><rect x="641.45" y="34.00" width="3.77" height="160.00" fill="#ffe1c9" /><rect x="644.62" y="34.00" width="3.77" height="160.00" fill="#ffe1c8" /><rect x="647.79" y="34.00" width="3.77" height="160.00" fill="#ffe0c7" /><rect x="650.97" y="34.00" width="3.77" height="160.00" fill="#ffe0c7" /><rect x="654.14" y="34.00" width="3.77" height="160.00" fill="#ffdfc6" /><rect x="657.31" y="34.00" width="3.77" height="160.00" fill="#ffdfc5" /><rect x="660.49" y="34.00" width="3.77" height="160.00" fill="#ffdfc5" /><rect x="663.66" y="34.00" width="3.77" height="160.00" fill="#ffdec4" /><rect x="666.84" y="34.00" width="3.77" height="160.00" fill="#ffdec3" /><rect x="670.01" y="34.00" width="3.77" height="160.00" fill="#ffddc2" /><rect x="673.18" y="34.00" width="3.77" height="160.00" fill="#ffddc2" /><rect x="676.36" y="34.00" width="3.77" height="160.00" fill="#ffddc1" /><rect x="679.53" y="34.00" width="3.77" height="160.00" fill="#ffdcc0" /><rect x="682.70" y="34.00" width="3.77" height="160.00" fill="#ffdcc0" /><rect x="685.88" y="34.00" width="3.77" height="160.00" fill="#ffdbbf" /><rect x="689.05" y="34.00" width="3.77" height="160.00" fill="#ffdbbe" /><rect x="692.22" y="34.00" width="3.77" height="160.00" fill="#ffdbbd" /><rect x="695.40" y="34.00" width="3.77" height="160.00" fill="#ffdabd" /><rect x="698.57" y="34.00" width="3.77" height="160.00" fill="#ffdabc" /><rect x="701.75" y="34.00" width="3.77" height="160.00" fill="#ffd9bb" /><rect x="704.92" y="34.00" width="3.77" height="160.00" fill="#ffd9ba" /><rect x="708.09" y="34.00" width="3.77" height="160.00" fill="#ffd9ba" /><rect x="711.27" y="34.00" width="3.77" height="160.00" fill="#ffd8b9" /><rect x="714.44" y="34.00" width="3.77" height="160.00" fill="#ffd8b8" /><rect x="717.61" y="34.00" width="3.77" height="160.00" fill="#ffd7b7" /><rect x="720.79" y="34.00" width="3.77" height="160.00" fill="#ffd7b7" /><rect x="723.96" y="34.00" width="3.77" height="160.00" fill="#ffd6b6" /><rect x="727.13" y="34.00" width="3.77" height="160.00" fill="#ffd6b5" /><rect x="730.31" y="34.00" width="3.77" height="160.00" fill="#ffd6b4" /><rect x="733.48" y="34.00" width="3.77" height="160.00" fill="#ffd5b3" /><rect x="736.65" y="34.00" width="3.77" height="160.00" fill="#ffd5b3" /><rect x="739.83" y="34.00" width="3.77" height="160.00" fill="#ffd4b2" /><rect x="743.00" y="34.00" width="3.77" height="160.00" fill="#ffd4b1" /><rect x="746.18" y="34.00" width="3.77" height="160.00" fill="#ffd3b0" /><rect x="749.35" y="34.00" width="3.77" height="160.00" fill="#ffd3af" /><rect x="752.52" y="34.00" width="3.77" height="160.00" fill="#ffd2af" /><rect x="755.70" y="34.00" width="3.77" height="160.00" fill="#ffd2ae" /><rect x="758.87" y="34.00" width="3.77" height="160.00" fill="#ffd2ad" /><rect x="762.04" y="34.00" width="3.77" height="160.00" fill="#ffd1ac" /><rect x="765.22" y="34.00" width="3.77" height="160.00" fill="#ffd1ab" /><rect x="768.39" y="34.00" width="3.77" height="160.00" fill="#ffd0aa" /><rect x="771.56" y="34.00" width="3.77" height="160.00" fill="#ffd0aa" /><rect x="774.74" y="34.00" width="3.77" height="160.00" fill="#ffcfa9" /><rect x="777.91" y="34.00" width="3.77" height="160.00" fill="#ffcfa8" /><rect x="781.09" y="34.00" width="3.77" height="160.00" fill="#ffcea7" /><rect x="784.26" y="81.06" width="3.77" height="112.94" fill="#ffcea6" /><rect x="787.43" y="81.06" width="3.77" height="112.94" fill="#ffcca3" /><rect x="790.61" y="81.06" width="3.77" height="112.94" fill="#ffcaa0" /><rect x="793.78" y="81.06" width="3.77" height="112.94" fill="#ffc99d" /><rect x="796.95" y="81.06" width="3.77" height="112.94" fill="#ffc799" /><rect x="800.13" y="81.06" width="3.77" height="112.94" fill="#ffc596" /><rect x="803.30" y="81.06" width="3.77" height="112.94" fill="#ffc392" /><rect x="806.47" y="81.06" width="3.77" height="112.94" fill="#ffc18f" /><rect x="809.65" y="81.06" width="3.77" height="112.94" fill="#ffc08b" /><rect x="812.82" y="81.06" width="3.77" height="112.94" fill="#ffbe87" /><rect x="816.00" y="81.06" width="3.77" height="112.94" fill="#ffbc83" /><rect x="819.17" y="81.06" width="3.77" height="112.94" fill="#ffba7f" /><rect x="822.34" y="81.06" width="3.77" height="112.94" fill="#ffb87b" /><rect x="825.52" y="81.06" width="3.77" height="112.94" fill="#ffb87b" /><rect x="828.69" y="81.06" width="3.77" height="112.94" fill="#ffb87b" /><rect x="831.86" y="81.06" width="3.77" height="112.94" fill="#ffb87b" /><rect x="835.04" y="81.06" width="3.77" height="112.94" fill="#ffb678" /><rect x="838.21" y="81.06" width="3.77" height="112.94" fill="#ffb576" /><rect x="841.38" y="81.06" width="3.77" height="112.94" fill="#ffb473" /><rect x="844.56" y="81.06" width="3.77" height="112.94" fill="#ffb270" /><rect x="847.73" y="85.45" width="3.77" height="108.55" fill="#ffb16d" /><rect x="850.90" y="93.61" width="3.77" height="100.39" fill="#ffb06a" /><rect x="854.08" y="101.76" width="3.77" height="92.24" fill="#ffae67" /><rect x="857.25" y="110.55" width="3.77" height="83.45" fill="#ffad64" /><rect x="860.43" y="118.71" width="3.77" height="75.29" fill="#ffab61" /><rect x="863.60" y="126.86" width="3.77" height="67.14" fill="#ffaa5e" /><rect x="866.77" y="135.65" width="3.77" height="58.35" fill="#ffa85b" /><rect x="869.95" y="143.80" width="3.77" height="50.20" fill="#ffa757" /><rect x="873.12" y="143.80" width="3.77" height="50.20" fill="#ffa757" /><rect x="876.29" y="143.80" width="3.77" height="50.20" fill="#ffa757" /><rect x="879.47" y="143.80" width="3.77" height="50.20" fill="#ffa757" /><rect x="882.64" y="143.80" width="3.77" height="50.20" fill="#ffa757" /><rect x="885.81" y="143.80" width="3.77" height="50.20" fill="#ffa757" /><rect x="888.99" y="143.80" width="3.77" height="50.20" fill="#ffa757" /><rect x="892.16" y="143.80" width="3.77" height="50.20" fill="#ffa757" /><rect x="895.34" y="143.80" width="3.77" height="50.20" fill="#ffa757" /><rect x="898.51" y="143.80" width="3.77" height="50.20" fill="#ffa757" /><rect x="901.68" y="143.80" width="3.77" height="50.20" fill="#ffa757" /><rect x="904.86" y="143.80" width="3.77" height="50.20" fill="#ffa757" /><rect x="908.03" y="143.80" width="3.77" height="50.20" fill="#ffa757" /><rect x="911.20" y="143.80" width="3.77" height="50.20" fill="#ffa757" /><rect x="914.38" y="143.80" width="3.77" height="50.20" fill="#ffa757" /><rect x="917.55" y="143.80" width="3.77" height="50.20" fill="#ffa757" /><rect x="920.72" y="143.80" width="3.77" height="50.20" fill="#ffa757" /><rect x="923.90" y="143.80" width="3.77" height="50.20" fill="#ffa757" /><rect x="927.07" y="143.80" width="3.77" height="50.20" fill="#ffa757" /><rect x="930.25" y="143.80" width="3.77" height="50.20" fill="#ffa757" /><rect x="933.42" y="143.80" width="3.77" height="50.20" fill="#ffa757" /><rect x="936.59" y="143.80" width="3.77" height="50.20" fill="#ffa757" /><rect x="939.77" y="143.80" width="3.77" height="50.20" fill="#ffa757" /><rect x="942.94" y="143.80" width="3.77" height="50.20" fill="#ffa757" /><rect x="946.11" y="143.80" width="3.77" height="50.20" fill="#ffa757" />
    <line x1="681.4" y1="22" x2="681.4" y2="30" class="evening-bracket" /><line x1="795.7" y1="22" x2="795.7" y2="30" class="evening-bracket" /><line x1="681.4" y1="26" x2="795.7" y2="26" class="evening-bracket" />
    <text x="34.0" y="214" class="axis-label" text-anchor="middle">00:00</text><text x="148.2" y="214" class="axis-label" text-anchor="middle">03:00</text><text x="262.5" y="214" class="axis-label" text-anchor="middle">06:00</text><text x="376.8" y="214" class="axis-label" text-anchor="middle">09:00</text><text x="491.0" y="214" class="axis-label" text-anchor="middle">12:00</text><text x="605.2" y="214" class="axis-label" text-anchor="middle">15:00</text><text x="719.5" y="214" class="axis-label" text-anchor="middle">18:00</text><text x="833.8" y="214" class="axis-label" text-anchor="middle">21:00</text><text x="948.0" y="214" class="axis-label" text-anchor="middle">24:00</text>
    <line x1="277.7" y1="34" x2="277.7" y2="194" class="sun-line" /><circle cx="277.7" cy="34" r="3" class="sun-dot" /><line x1="786.1" y1="34" x2="786.1" y2="194" class="sun-line" /><circle cx="786.1" cy="34" r="3" class="sun-dot" />
    <line x1="786.1" y1="34" x2="786.1" y2="194" class="boundary-line" /><line x1="262.5" y1="34" x2="262.5" y2="194" class="boundary-line" /><line x1="338.7" y1="34" x2="338.7" y2="194" class="boundary-line" /><line x1="871.8" y1="34" x2="871.8" y2="194" class="boundary-line" />
    <line x1="684.3" y1="30" x2="684.3" y2="194" class="now-line" /><circle cx="684.3" cy="34.0" r="4" fill="#ffdcc0" class="now-dot" />
    <line x1="34" y1="194" x2="948" y2="194" class="axis-line" />
    <text x="738.5" y="13" class="boundary-label" text-anchor="middle">Evening</text><text x="262.5" y="13" class="boundary-label" text-anchor="middle">Morning</text><text x="338.7" y="13" class="boundary-label" text-anchor="middle">Day</text><text x="871.8" y="13" class="boundary-label" text-anchor="middle">Night</text>
  </g>
  <text x="16" y="322" class="footnote">Evening starts at 19:45, following tonight's sunset.</text>
</svg>
